<?xml version="1.0" encoding="utf-8"?>
<!-- Generator: Adobe Illustrator 19.2.1, SVG Export Plug-In . SVG Version: 6.00 Build 0)  -->
<svg version="1.1" id="Layer_1" xmlns="http://www.w3.org/2000/svg" xmlns:xlink="http://www.w3.org/1999/xlink" x="0px" y="0px"
	 viewBox="0 0 218.4 174.1" enable-background="new 0 0 218.4 174.1" xml:space="preserve">
<path fill="#FFFFFF" d="M109.7,0c-44.7,0-81,36.3-81,81c0,28.9,15.3,54.4,38.2,68.7h82.5v1.9c24.6-13.9,41.3-40.3,41.3-70.6
	C190.7,36.3,154.4,0,109.7,0z"/>
<g>
	<circle fill="#1D489A" cx="109.7" cy="81" r="74.8"/>
	<path fill="#6FA5D9" d="M109.7,8.9c39.8,0,72.1,32.3,72.1,72.1s-32.3,72.1-72.1,72.1S37.6,120.7,37.6,81S70,8.9,109.7,8.9
		 M109.7,6.2C68.4,6.2,34.9,39.7,34.9,81s33.5,74.8,74.8,74.8c41.3,0,74.8-33.5,74.8-74.8S151,6.2,109.7,6.2L109.7,6.2z"/>
	<path fill="#1D489A" d="M109.7,158.2c-42.6,0-77.2-34.6-77.2-77.2S67.1,3.8,109.7,3.8s77.2,34.6,77.2,77.2S152.3,158.2,109.7,158.2
		z M109.7,7.1C69,7.1,35.8,40.2,35.8,81s33.2,73.9,73.9,73.9s73.9-33.2,73.9-73.9S150.5,7.1,109.7,7.1z"/>
	<g>
		<circle fill="#3956A6" cx="109.7" cy="81" r="57"/>
		<path fill="#010101" d="M109.7,139c-32,0-58-26-58-58s26-58,58-58c32,0,58,26,58,58S141.7,139,109.7,139z M109.7,24.9
			c-30.9,0-56,25.1-56,56s25.1,56,56,56c30.9,0,56-25.1,56-56S140.6,24.9,109.7,24.9z"/>
	</g>
	<circle fill="#406AB2" cx="109.7" cy="81" r="60.2"/>
	<circle fill="#FBFEFF" cx="110.5" cy="80.5" r="57"/>
	<path fill="#243C7C" d="M109.7,139.3c-32.2,0-58.4-26.2-58.4-58.4s26.2-58.4,58.4-58.4s58.4,26.2,58.4,58.4
		S141.9,139.3,109.7,139.3z M109.7,25.3C79,25.3,54,50.3,54,81s25,55.7,55.7,55.7s55.7-25,55.7-55.7S140.4,25.3,109.7,25.3z"/>
	<path fill="#D2D3D4" d="M155.3,80.8l0-0.7c0-0.2,0-0.3,0-0.5c0-0.1,0-0.2,0-0.3c0-0.3,0-0.7-0.1-1.1l0-0.4c0-0.1,0-0.3,0-0.4
		l-0.1-0.8c0-0.2,0-0.4-0.1-0.5c0-0.1,0-0.2,0-0.3l0-0.4l-0.2-1.2l-0.1-0.7c-0.1-0.4-0.1-0.6-0.2-0.9l-0.1-0.3l1.9-0.4l0.1,0.7
		l0,0.1c0.1,0.5,0.2,1.2,0.3,1.9c0.2,1.4,0.3,2.9,0.3,2.9l0,0.2l5.3-0.4l0-0.3c0,0,0-0.1,0-0.1l-0.1-1.2c0-0.2,0-0.4-0.1-0.6
		l-0.1-0.9l-0.1-0.7c0-0.3-0.1-0.7-0.2-1.1l0-0.3c-0.1-0.3-0.1-0.7-0.2-1l0-0.2c-0.1-0.4-0.1-0.7-0.2-1.1l-0.1-0.7
		c0-0.1-0.1-0.3-0.1-0.4c0-0.1,0-0.1-0.1-0.2l-0.2-0.6c0-0.1-0.1-0.3-0.1-0.4c0-0.1,0-0.1-0.1-0.2l0-0.2c-0.1-0.4-0.2-0.7-0.3-1
		l-0.2-0.5l-0.4-1.4c-0.1-0.2-0.1-0.3-0.2-0.5c0-0.1,0-0.1-0.1-0.2l-0.3-0.8l-6.8,2.5l-0.3-0.7c-0.1-0.1-0.1-0.3-0.2-0.4
		c-0.3-0.8-0.8-1.9-1.3-2.9c-0.5-0.9-1-1.9-1.5-2.8c-0.1-0.1-0.1-0.2-0.2-0.4c0-0.1-0.1-0.1-0.1-0.2l-0.2-0.4c0-0.1-0.1-0.1-0.1-0.2
		l1.7-1c0,0,0,0,0,0l0.4,0.7c0,0.1,0.1,0.2,0.1,0.2l0.5,0.9c0.1,0.1,0.1,0.2,0.2,0.3l0.3,0.7c0.1,0.1,0.1,0.2,0.2,0.3
		c0,0.1,0.1,0.1,0.1,0.2l0.1,0.3l0.8,1.6l4.8-2.2l-0.4-1c-0.1-0.1-0.1-0.3-0.2-0.5l-0.4-0.8c-0.1-0.2-0.2-0.4-0.3-0.7
		c-0.1-0.1-0.1-0.2-0.2-0.3c0-0.1-0.1-0.1-0.1-0.2c-0.1-0.1-0.1-0.2-0.2-0.4l-0.3-0.5c0-0.1-0.1-0.1-0.1-0.2
		c-0.1-0.1-0.1-0.2-0.2-0.4l-0.3-0.6c-0.2-0.3-0.4-0.7-0.6-1l-0.1-0.1c-0.4-0.7-0.9-1.5-1.5-2.2l-0.7-1c-0.2-0.2-0.3-0.4-0.5-0.7
		c-0.1-0.1-0.1-0.2-0.2-0.2l-0.3-0.4c-0.1-0.1-0.1-0.2-0.2-0.2l-0.5-0.7c-0.1-0.1-0.2-0.2-0.2-0.3l-0.3-0.4l-5.6,4.7l-0.1-0.1
		c-0.1-0.2-0.3-0.4-0.5-0.6l-0.4-0.4c0-0.1-0.1-0.1-0.2-0.2l-0.6-0.7c-0.1-0.1-0.2-0.2-0.3-0.3c-0.3-0.3-0.6-0.6-0.9-0.9
		c-0.3-0.3-0.6-0.6-0.9-0.9c-0.1-0.1-0.2-0.2-0.3-0.3c-0.1-0.1-0.2-0.2-0.4-0.3c-0.3-0.2-0.5-0.4-0.7-0.6l-0.4-0.4
		c-0.1-0.1-0.2-0.1-0.2-0.2c0,0-0.1-0.1-0.1-0.1l-0.1-0.1l1.2-1.5l0.3,0.2c0.1,0.1,0.2,0.1,0.3,0.2l0.7,0.6l0.8,0.7
		c0.2,0.2,0.4,0.3,0.5,0.5c0.1,0.1,0.2,0.2,0.3,0.3c0.2,0.2,0.3,0.3,0.5,0.4c0.1,0.1,0.2,0.1,0.2,0.2l0.8,0.8l3.8-3.7l-0.6-0.6
		l-0.6-0.6c-0.2-0.2-0.4-0.3-0.6-0.5l-0.5-0.5c-0.1-0.1-0.2-0.2-0.3-0.3c-0.1-0.1-0.2-0.2-0.3-0.3c-0.2-0.2-0.4-0.4-0.6-0.6
		l-0.5-0.4c-0.1,0-0.1-0.1-0.2-0.1c-0.1-0.1-0.2-0.2-0.3-0.3l-0.6-0.5c-0.2-0.1-0.3-0.3-0.5-0.4c-0.7-0.6-1.5-1.1-2.1-1.6
		c-0.7-0.5-1.4-0.9-1.9-1.3l-0.8-0.5l-1.3-0.8l-3.6,6.3l-0.7-0.4c-0.1-0.1-0.2-0.1-0.4-0.2c-0.8-0.4-1.8-0.9-2.8-1.4
		c-1-0.4-2-0.9-2.9-1.2c-0.2-0.1-0.3-0.1-0.4-0.2l-0.7-0.2l0.6-1.8c0,0,0,0,0,0l0.6,0.2c0.2,0.1,0.5,0.2,0.8,0.3l0.6,0.2l1,0.4
		c0.1,0,0.2,0.1,0.3,0.1c0.1,0,0.1,0.1,0.2,0.1c0.1,0,0.2,0.1,0.3,0.1c0.2,0.1,0.4,0.2,0.6,0.2l1,0.5l2.3-4.8l-1.3-0.6l-1-0.4
		c-0.2-0.1-0.5-0.2-0.7-0.3c-0.1,0-0.2-0.1-0.3-0.1l-0.2-0.1c-0.1,0-0.2-0.1-0.4-0.1l-0.8-0.3c-0.1-0.1-0.3-0.1-0.4-0.2l-0.6-0.2
		c-0.1,0-0.1-0.1-0.2-0.1c-0.1,0-0.3-0.1-0.4-0.1l-1-0.3c-0.1,0-0.2-0.1-0.3-0.1l-0.6-0.2c-0.3-0.1-0.7-0.2-1-0.3l-0.2-0.1
		c-0.3-0.1-0.7-0.2-1-0.3l-1.3-0.3c-0.1,0-0.2,0-0.3-0.1c-0.2,0-0.4-0.1-0.6-0.1l-1.2-0.2l-0.4-0.1l-1.3,7.1l-0.3-0.1
		c-0.2,0-0.5-0.1-0.9-0.1l-0.7-0.1l-0.8-0.1l-0.8-0.1c-0.1,0-0.2,0-0.3,0c-0.2,0-0.4,0-0.5,0l-0.8-0.1l-1.2-0.1l-1.4,0l-0.9,0l0-1.9
		l0.7,0c0.2,0,0.4,0,0.6,0c0.1,0,0.2,0,0.3,0l0.3,0l1.3,0c0.1,0,0.2,0,0.3,0c0.1,0,0.1,0,0.2,0c0.1,0,0.2,0,0.4,0c0.2,0,0.4,0,0.6,0
		l1.1,0.1l0.5-5.3l-0.8-0.1c-0.1,0-0.1,0-0.2,0c-0.1,0-0.3,0-0.5,0l-0.9-0.1l-1.3-0.1c-0.1,0-0.3,0-0.4,0l-1.3,0l-1.3,0
		c-0.1,0-0.3,0-0.4,0l-0.9,0c-0.1,0-0.3,0-0.4,0l-0.9,0.1c-0.1,0-0.3,0-0.4,0l-0.8,0.1c-0.1,0-0.3,0-0.4,0c-0.1,0-0.1,0-0.2,0
		l-0.6,0.1c-0.2,0-0.4,0-0.5,0.1l-0.9,0.1l-1.5,0.2l1.3,7.1c0,0-0.1,0-0.2,0c-0.1,0-0.2,0-0.3,0.1c-0.2,0-0.4,0.1-0.7,0.1l-0.8,0.2
		c-0.1,0-0.2,0-0.2,0.1L99,36.6c-0.1,0-0.2,0-0.3,0.1c-0.2,0-0.3,0.1-0.5,0.1L97.4,37c-0.2,0-0.4,0.1-0.5,0.2
		c-0.1,0-0.2,0.1-0.3,0.1L95,37.8L94.4,38c-0.3,0.1-0.5,0.2-0.7,0.3c-0.1,0-0.2,0.1-0.2,0.1l-0.2,0.1l-0.7-1.8l0.7-0.3
		c0.1,0,0.2-0.1,0.4-0.1l0.5-0.2c0.3-0.1,0.5-0.2,0.8-0.3l0.4-0.1c0.1,0,0.2-0.1,0.3-0.1l1-0.3c0.1,0,0.2-0.1,0.3-0.1l0.8-0.2
		c0.1,0,0.1,0,0.2,0l0.3-0.1l-1.3-5.1l-1.5,0.4c-0.2,0-0.4,0.1-0.6,0.2c-0.1,0-0.2,0.1-0.3,0.1L94,30.5l-1.1,0.4
		c-0.1,0-0.3,0.1-0.4,0.1c-0.1,0-0.1,0-0.2,0.1l-0.6,0.2c-0.1,0-0.3,0.1-0.4,0.2c-0.1,0-0.1,0.1-0.2,0.1l-0.6,0.2
		c-0.1,0.1-0.3,0.1-0.4,0.2l-0.8,0.3l-1.2,0.5l-1.2,0.5l-1,0.5c-0.1,0.1-0.2,0.1-0.3,0.2L85,34.2c-0.2,0.1-0.4,0.2-0.5,0.3l-1,0.6
		l-0.3,0.2l3.6,6.3l-0.3,0.2c-0.2,0.1-0.5,0.3-0.7,0.5l-0.6,0.4L84.5,43c-0.2,0.1-0.4,0.3-0.6,0.4l-0.1,0.1c-0.1,0-0.1,0.1-0.2,0.1
		c-0.2,0.1-0.3,0.2-0.5,0.3c-0.9,0.6-1.7,1.3-2.5,1.9l-0.8,0.7l-0.1,0.1l-1.3-1.5l0,0c0.1-0.1,0.2-0.2,0.4-0.3l0.1-0.1
		c0.4-0.4,1-0.8,1.6-1.3l0.6-0.4c0.1-0.1,0.2-0.2,0.3-0.2l0.8-0.6l0.9-0.7l-3-4.4l-1,0.7l-1.1,0.8l-0.9,0.7
		c-0.2,0.2-0.4,0.3-0.6,0.5c-0.1,0.1-0.2,0.2-0.3,0.3c-0.1,0.1-0.3,0.2-0.4,0.3l-0.6,0.5c-0.1,0.1-0.2,0.2-0.3,0.3
		c-0.1,0.1-0.1,0.1-0.2,0.2l-0.5,0.4c-1.2,1.1-2.5,2.4-3.5,3.5c-0.1,0.1-0.2,0.2-0.3,0.3l-0.5,0.6c-0.1,0.1-0.2,0.3-0.3,0.4
		l-0.5,0.6l5.6,4.7l-0.8,0.9c-0.6,0.8-1.3,1.6-1.8,2.5c-0.1,0.2-0.2,0.3-0.3,0.5c-0.1,0.1-0.1,0.2-0.2,0.2l-0.2,0.3
		c0,0.1-0.1,0.2-0.1,0.2c0,0,0,0.1-0.1,0.1l-0.4,0.7l-0.3,0.6c-0.2,0.3-0.3,0.5-0.4,0.7L69.7,59L68,58l0.3-0.6
		c0.3-0.5,0.7-1.1,1-1.7c0.2-0.2,0.3-0.5,0.5-0.7l0.2-0.3c0.1-0.1,0.1-0.2,0.2-0.3l0.6-0.9l0.3-0.4l-4.3-3.1l-0.2,0.3
		c-0.1,0.1-0.1,0.2-0.2,0.3l-0.2,0.2c-0.2,0.3-0.5,0.7-0.8,1.2l-0.3,0.4c-0.1,0.1-0.1,0.2-0.2,0.3l-0.2,0.3
		c-0.2,0.3-0.4,0.6-0.5,0.9l-0.1,0.1c-0.2,0.3-0.4,0.6-0.6,1l-0.3,0.6c-0.1,0.1-0.1,0.3-0.2,0.4c0,0.1-0.1,0.1-0.1,0.2l-0.3,0.6
		l-0.5,0.9l-0.6,1.4L61,60.3c0,0.1-0.1,0.2-0.1,0.3c0,0.1,0,0.1-0.1,0.2l-0.1,0.3c-0.1,0.2-0.2,0.4-0.2,0.6l-0.4,1.1
		c0,0.1,0,0.1,0,0.1l-0.1,0.2l6.8,2.5l-0.1,0.2c0,0.1,0,0.1-0.1,0.2c-0.1,0.2-0.2,0.5-0.3,0.8l-0.2,0.7l-0.3,1.1l-0.1,0.4
		c0,0.1-0.1,0.2-0.1,0.3c0,0.2-0.1,0.3-0.1,0.5l-0.2,0.8c0,0.1-0.1,0.2-0.1,0.3L65,71.7c0,0.1,0,0.2,0,0.2l-0.2,0.8
		c0,0.1,0,0.2-0.1,0.3l-0.1,0.8c0,0,0,0,0,0l-1.9-0.3c0,0,0,0,0,0l0.2-1.1l0.2-1c0-0.1,0-0.2,0.1-0.3c0-0.1,0-0.1,0-0.2
		c0.1-0.7,0.3-1.4,0.4-1.9l0.3-1.2l-5.1-1.4l-0.2,0.8l-0.4,1.6c0,0.1-0.1,0.3-0.1,0.4L58,69.9c-0.1,0.3-0.1,0.6-0.2,0.9l-0.1,0.3
		c0,0.1,0,0.1,0,0.2c0,0.1-0.1,0.3-0.1,0.4l-0.1,0.7c0,0.1,0,0.2,0,0.2c0,0.1,0,0.3-0.1,0.4l-0.1,0.7c-0.1,0.4-0.1,0.8-0.1,1.1
		l0,0.2c0,0.4-0.1,0.7-0.1,1.1l0,0.2c0,0.1,0,0.1,0,0.2c0,0.1,0,0.3,0,0.4l-0.1,1.2c0,0.1,0,0.2,0,0.4l0,0.9l0,1.8h7.3l0,0.7
		c0,0.2,0,0.3,0,0.5c0,0.1,0,0.2,0,0.3c0,0.3,0,0.7,0.1,1.1l0,0.4c0,0.1,0,0.3,0,0.4l0.1,0.8c0,0.2,0,0.4,0.1,0.5c0,0.1,0,0.2,0,0.3
		l0,0.4l0.2,1.2l0.1,0.7c0.1,0.4,0.1,0.6,0.2,0.9l0.1,0.3L63,90.2l-0.1-0.7l0-0.1c-0.1-0.5-0.2-1.2-0.3-1.9
		c-0.2-1.4-0.3-2.9-0.3-2.9l0-0.2L57,84.7l0,0.3c0,0,0,0.1,0,0.1l0.1,1.2c0,0.2,0,0.4,0.1,0.6l0.1,0.9l0.1,0.7
		c0,0.3,0.1,0.7,0.2,1.1l0,0.3c0.1,0.3,0.1,0.7,0.2,1l0,0.2c0.1,0.4,0.1,0.7,0.2,1.1l0.1,0.7c0,0.1,0.1,0.3,0.1,0.4
		c0,0.1,0,0.1,0.1,0.2l0.2,0.6c0,0.1,0.1,0.3,0.1,0.4c0,0.1,0,0.1,0.1,0.2l0,0.2c0.1,0.4,0.2,0.7,0.3,1l0.2,0.5l0.4,1.4
		c0.1,0.2,0.1,0.3,0.2,0.5c0,0.1,0,0.1,0.1,0.2l0.3,0.8l6.8-2.5l0.3,0.7c0.1,0.1,0.1,0.3,0.2,0.4c0.3,0.8,0.8,1.9,1.3,2.9
		c0.5,0.9,1,1.9,1.5,2.8c0.1,0.1,0.1,0.2,0.2,0.4c0,0.1,0.1,0.1,0.1,0.2l0.2,0.4c0,0.1,0.1,0.1,0.1,0.2l-1.7,1c0,0,0,0,0,0l-0.4-0.7
		c0-0.1-0.1-0.2-0.1-0.3l-0.5-0.9c-0.1-0.1-0.1-0.2-0.2-0.3l-0.4-0.7c-0.1-0.1-0.1-0.2-0.2-0.3c0-0.1-0.1-0.1-0.1-0.2l-0.9-1.9
		l-4.8,2.2l0.4,1c0.1,0.1,0.1,0.3,0.2,0.5l0.4,0.8c0.1,0.2,0.2,0.4,0.3,0.7c0.1,0.1,0.1,0.2,0.2,0.3c0,0.1,0.1,0.1,0.1,0.2
		c0.1,0.1,0.1,0.2,0.2,0.4l0.3,0.5c0,0.1,0.1,0.1,0.1,0.2c0.1,0.1,0.1,0.2,0.2,0.4l0.3,0.6c0.2,0.3,0.4,0.7,0.6,1l0.1,0.1
		c0.4,0.7,0.9,1.5,1.5,2.2l0.7,1c0.2,0.2,0.3,0.4,0.5,0.7c0.1,0.1,0.1,0.1,0.2,0.2l0.3,0.4c0.1,0.1,0.1,0.2,0.2,0.2l0.5,0.7
		c0.1,0.1,0.2,0.2,0.2,0.3l0.3,0.4l5.6-4.7l0.1,0.1c0.1,0.2,0.3,0.4,0.5,0.6l0.4,0.4c0,0.1,0.1,0.1,0.2,0.2l0.6,0.7
		c0.1,0.1,0.2,0.2,0.3,0.3c0.3,0.3,0.6,0.6,0.9,0.9c0.3,0.3,0.6,0.6,0.9,0.9c0.1,0.1,0.2,0.2,0.3,0.3c0.1,0.1,0.2,0.2,0.4,0.3
		c0.3,0.2,0.5,0.4,0.7,0.6l0.4,0.4c0.1,0.1,0.2,0.1,0.2,0.2c0,0,0.1,0.1,0.1,0.1l0.1,0.1l-1.2,1.5l-0.3-0.2
		c-0.1-0.1-0.2-0.1-0.3-0.2l-0.7-0.6l-0.8-0.7c-0.2-0.2-0.3-0.3-0.5-0.5c-0.1-0.1-0.2-0.2-0.3-0.3c-0.2-0.2-0.3-0.3-0.5-0.4
		c-0.1-0.1-0.2-0.1-0.2-0.2l-0.8-0.8l-3.8,3.7l0.6,0.6l0.6,0.6c0.2,0.2,0.3,0.3,0.5,0.5L74,120c0.1,0.1,0.2,0.2,0.3,0.3
		c0.1,0.1,0.2,0.2,0.3,0.3c0.2,0.2,0.4,0.4,0.6,0.6l0.5,0.4c0.1,0,0.1,0.1,0.2,0.1c0.1,0.1,0.2,0.2,0.3,0.3l0.6,0.5
		c0.2,0.1,0.3,0.3,0.5,0.4c0.7,0.6,1.5,1.1,2.1,1.6c0.7,0.5,1.4,0.9,1.9,1.3l0.8,0.5l1.3,0.8l3.6-6.3l0.7,0.4
		c0.1,0.1,0.2,0.1,0.4,0.2c0.8,0.4,1.8,0.9,2.8,1.4c1,0.4,2,0.9,2.9,1.2c0.2,0.1,0.3,0.1,0.4,0.2l0.7,0.2l-0.6,1.8c0,0,0,0,0,0
		l-0.6-0.2c-0.2-0.1-0.5-0.2-0.8-0.3l-0.6-0.2l-1-0.4c-0.1,0-0.2-0.1-0.3-0.1l-0.2-0.1c-0.1,0-0.2-0.1-0.3-0.1
		c-0.2-0.1-0.4-0.2-0.6-0.3l-1-0.5l-2.3,4.8l1.4,0.7l0.8,0.4c0.2,0.1,0.5,0.2,0.7,0.3c0.1,0,0.2,0.1,0.3,0.1l0.2,0.1
		c0.1,0,0.2,0.1,0.4,0.1l0.8,0.3c0.1,0.1,0.3,0.1,0.4,0.2l0.6,0.2c0.1,0,0.1,0.1,0.2,0.1c0.1,0,0.3,0.1,0.4,0.1l1,0.3
		c0.1,0,0.2,0.1,0.3,0.1l0.6,0.2c0.3,0.1,0.7,0.2,1,0.3l0.2,0.1c0.3,0.1,0.7,0.2,1,0.3l0.7,0.2l0.5,0.1c0.1,0,0.2,0,0.3,0.1
		c0.2,0,0.4,0.1,0.6,0.1l1.2,0.2l0.4,0.1l1.3-7.1l0.3,0.1c0.2,0,0.5,0.1,0.8,0.1l0.7,0.1l0.8,0.1l0.8,0.1c0.1,0,0.2,0,0.3,0
		c0.2,0,0.4,0,0.5,0l0.8,0.1l1.2,0.1l1.4,0l0.9,0l0,1.9l-0.7,0c-0.2,0-0.4,0-0.6,0c-0.1,0-0.2,0-0.3,0l-0.3,0l-1.3,0
		c-0.1,0-0.2,0-0.3,0c-0.1,0-0.1,0-0.2,0c-0.1,0-0.3,0-0.4,0c-0.2,0-0.4,0-0.6,0l-1.1-0.1l-0.5,5.3l0.8,0.1c0.1,0,0.1,0,0.2,0
		c0.1,0,0.3,0,0.5,0l0.9,0.1l1.3,0.1c0.1,0,0.3,0,0.4,0l1.3,0l1.3,0c0.2,0,0.3,0,0.5,0l0.9,0c0.2,0,0.3,0,0.5,0l0.9-0.1
		c0.1,0,0.3,0,0.4,0l0.8-0.1c0.1,0,0.3,0,0.4,0c0.1,0,0.1,0,0.2,0l0.6-0.1c0.2,0,0.4,0,0.5-0.1l0.7-0.1l1.8-0.3l-1.3-7.1
		c0,0,0.1,0,0.2,0c0.1,0,0.2,0,0.3-0.1c0.2,0,0.4-0.1,0.7-0.1l0.8-0.2c0.1,0,0.2,0,0.2-0.1l0.4-0.1c0.1,0,0.2,0,0.3-0.1
		c0.2,0,0.3-0.1,0.5-0.1l0.8-0.2c0.2,0,0.4-0.1,0.5-0.2c0.1,0,0.2-0.1,0.3-0.1l0.3-0.1l1.2-0.4l0.7-0.2c0.3-0.1,0.5-0.2,0.7-0.3
		c0.1,0,0.2-0.1,0.2-0.1l0.2-0.1l0.7,1.8l-0.7,0.3c-0.1,0-0.2,0.1-0.4,0.1l-0.5,0.2c-0.3,0.1-0.5,0.2-0.8,0.3l-0.2,0.1
		c-0.1,0-0.1,0-0.2,0.1c-0.1,0-0.2,0.1-0.3,0.1l-1,0.3c-0.1,0-0.2,0.1-0.3,0.1l-0.8,0.2c-0.1,0-0.1,0-0.2,0l-0.3,0.1l1.3,5.1
		l1.5-0.4c0.2,0,0.4-0.1,0.6-0.2c0.1,0,0.2-0.1,0.3-0.1l0.5-0.2l1.1-0.4c0.1,0,0.3-0.1,0.4-0.1c0.1,0,0.1,0,0.2-0.1l0.6-0.2
		c0.1,0,0.3-0.1,0.4-0.2c0.1,0,0.1-0.1,0.2-0.1l0.6-0.2c0.1-0.1,0.3-0.1,0.4-0.2l0.6-0.3l1.2-0.5l1.3-0.6l1.1-0.6
		c0.1-0.1,0.2-0.1,0.3-0.2c0.1,0,0.1-0.1,0.2-0.1l0.3-0.2c0.2-0.1,0.4-0.2,0.5-0.3l0.5-0.3l0.8-0.5l-3.6-6.3l0.3-0.2
		c0.2-0.1,0.5-0.3,0.8-0.5l0.6-0.4l0.6-0.4c0.2-0.1,0.4-0.3,0.6-0.4l0.1-0.1c0.1,0,0.1-0.1,0.2-0.1c0.2-0.1,0.3-0.2,0.5-0.3
		c0.9-0.6,1.7-1.3,2.5-1.9l0.8-0.7l0.1-0.1l1.3,1.5l0,0c-0.1,0.1-0.2,0.2-0.4,0.3l-0.1,0.1c-0.4,0.4-1,0.8-1.6,1.3l-0.6,0.4
		c-0.1,0.1-0.2,0.2-0.3,0.2l-0.8,0.6l-0.9,0.7l3,4.4l1-0.7l1.1-0.8l0.9-0.7c0.2-0.2,0.4-0.3,0.6-0.5c0.1-0.1,0.2-0.2,0.3-0.3
		c0.1-0.1,0.3-0.2,0.4-0.3l0.6-0.5c0.1-0.1,0.2-0.2,0.3-0.3c0.1-0.1,0.1-0.1,0.2-0.2l0.5-0.4c1.2-1.1,2.5-2.4,3.5-3.5
		c0.1-0.1,0.2-0.2,0.3-0.3l0.5-0.6c0.1-0.1,0.2-0.3,0.3-0.4l0.5-0.6l-5.6-4.7l0.8-0.9c0.4-0.5,1.2-1.5,1.8-2.5
		c0.1-0.2,0.2-0.3,0.3-0.5c0.1-0.1,0.1-0.2,0.2-0.2l0.2-0.3c0-0.1,0.1-0.2,0.1-0.2l0.5-0.8l0.3-0.6c0.2-0.3,0.3-0.5,0.4-0.7l0.2-0.3
		l1.7,0.9l-0.3,0.6c-0.3,0.5-0.7,1.1-1,1.7c-0.2,0.2-0.3,0.5-0.5,0.7l-0.2,0.3c-0.1,0.1-0.1,0.2-0.2,0.3l-0.6,0.9l-0.3,0.4l4.3,3.1
		l0.2-0.3c0.1-0.1,0.1-0.2,0.2-0.3l0.2-0.2c0.2-0.3,0.5-0.7,0.8-1.2l0.3-0.4c0.1-0.1,0.1-0.2,0.2-0.3l0.2-0.3
		c0.2-0.3,0.4-0.6,0.5-0.9l0.1-0.1c0.2-0.3,0.4-0.6,0.6-1l0.3-0.6c0.1-0.1,0.1-0.3,0.2-0.4c0-0.1,0.1-0.1,0.1-0.2l0.3-0.6l0.6-1.2
		l0.5-1.2l0.5-1.1c0-0.1,0.1-0.2,0.1-0.3c0-0.1,0-0.1,0.1-0.2l0.1-0.3c0.1-0.2,0.2-0.4,0.2-0.6l0.4-1.1c0-0.1,0-0.1,0-0.1l0.1-0.2
		l-6.8-2.5l0.1-0.2c0-0.1,0-0.1,0.1-0.2c0.1-0.2,0.2-0.5,0.3-0.8l0.2-0.7l0.2-0.7l0.2-0.8c0-0.1,0.1-0.2,0.1-0.3
		c0-0.2,0.1-0.3,0.1-0.5l0.2-0.8c0-0.1,0.1-0.2,0.1-0.3l0.2-0.9c0-0.1,0-0.2,0-0.2l0.2-0.8c0-0.1,0-0.2,0.1-0.3l0.1-0.8c0,0,0,0,0,0
		l1.9,0.3c0,0,0,0,0,0l-0.1,0.7l-0.3,1.5c0,0.1,0,0.2-0.1,0.3c0,0.1,0,0.1,0,0.2c-0.1,0.7-0.3,1.4-0.4,1.9l-0.3,1.2l5.1,1.4l0.2-0.8
		l0.4-1.6c0-0.1,0.1-0.3,0.1-0.4l0.1-0.7c0.1-0.3,0.1-0.6,0.2-0.9l0.1-0.3c0-0.1,0-0.1,0-0.2c0-0.1,0.1-0.3,0.1-0.4l0.1-0.7
		c0-0.1,0-0.2,0-0.2c0-0.1,0-0.3,0.1-0.4l0.1-0.7c0.1-0.4,0.1-0.8,0.1-1.1l0-0.2c0-0.4,0.1-0.7,0.1-1.1l0-0.2c0-0.1,0-0.1,0-0.2
		c0-0.1,0-0.3,0-0.4l0.1-1.2c0-0.1,0-0.2,0-0.4l0-0.8l0-1.8H155.3z M75.2,108.2l-5.7,4.5c0-0.1-0.1-0.1-0.2-0.2l-0.6-0.7l-0.2-0.3
		c-0.7-1-1.5-2.1-2.2-3.2l-0.3-0.5l-0.8-1.3l-0.5-0.8c-0.1-0.2-0.2-0.4-0.3-0.5c0-0.1-0.1-0.2-0.1-0.2c0-0.1-0.1-0.2-0.1-0.2
		c-0.1-0.1-0.1-0.3-0.2-0.4l-0.4-0.7l1.8-0.8l0.3,0.7c0.1,0.2,0.2,0.3,0.3,0.5c0.1,0.1,0.1,0.2,0.2,0.3c0.1,0.2,0.3,0.5,0.4,0.7
		l0.1,0.2c0,0.1,0.1,0.1,0.1,0.2c0.1,0.1,0.1,0.2,0.2,0.3l0.5,0.9l0.6,1l0.3,0.4l4.4-2.9l-0.2-0.3c0-0.1-0.1-0.1-0.2-0.3l-0.3-0.4
		c-0.1-0.1-0.2-0.3-0.3-0.5l-0.4-0.6l-0.4-0.7c-0.1-0.2-0.2-0.3-0.3-0.5c0-0.1-0.1-0.2-0.1-0.2l-0.2-0.4l-0.2-0.4
		c-0.5-1.1-1-2.2-1.4-3.1l-0.1-0.3c0-0.1,0-0.1-0.1-0.2l-0.3-0.8c0-0.1,0-0.1,0-0.1l-0.3-0.9C68,95,68,95,68,95L68,94.7L61.1,97
		l-0.5-1.5c-0.1-0.4-0.3-0.9-0.4-1.4l-0.1-0.4l-0.2-1l-0.3-1.2c0-0.1,0-0.2-0.1-0.3l-0.1-0.8c-0.1-0.3-0.1-0.5-0.1-0.8l-0.2-0.9
		L59,87.9l-0.2-1.5l1.9-0.2l0.1,0.7c0,0,0,0.1,0,0.2c0,0.1,0,0.2,0,0.3l0.1,1.1c0,0.1,0,0.2,0.1,0.4l0.1,0.4c0,0.3,0.1,0.6,0.2,0.9
		c0,0.1,0,0.2,0.1,0.4c0,0.2,0.1,0.4,0.1,0.6l0.2,1.1l5.2-1.2l-0.2-1.1c0-0.1,0-0.2-0.1-0.4l0-0.3c-0.1-0.4-0.1-0.8-0.2-1.2
		l-0.1-0.4l0-0.2c-0.1-0.5-0.1-1-0.2-1.6L66,85.5l0-0.5c0-0.1,0-0.2,0-0.3c0-0.2,0-0.4,0-0.6l-0.1-0.8l0-0.8c0-0.3,0-0.6,0-0.9
		c0-0.1,0-0.2,0-0.3l0-0.4l0-1.4l-7.2-0.2l0-0.3c0-0.1,0-0.2,0-0.3c0-0.3,0-0.6,0-1l0-0.7l0.1-1.1c0-0.2,0-0.5,0.1-0.7l0.1-0.8
		c0-0.1,0-0.2,0-0.3l0.1-0.6l0.3-1.6c0-0.2,0.1-0.3,0.1-0.5c0.1-0.5,0.2-0.9,0.3-1.3l0.2-0.7l0.2-0.8l1.9,0.5l-0.2,0.7l-0.2,1
		l-0.2,1.1c-0.1,0.3-0.1,0.6-0.2,0.9l-0.1,0.5l-0.2,1.3c0,0.1,0,0.1,0,0.2l0,0.3l5.3,0.6l0-0.2c0,0,0-0.2,0.1-0.4l0.1-0.8
		c0-0.1,0-0.1,0-0.2l0.1-0.9c0-0.2,0.1-0.3,0.1-0.5c0-0.1,0-0.2,0.1-0.3c0-0.2,0.1-0.5,0.2-0.7l0.1-0.6c0-0.1,0-0.2,0.1-0.3
		c0-0.1,0-0.1,0-0.2l0.1-0.4l0.4-1.3l0.2-0.8c0-0.2,0.1-0.3,0.2-0.5c0-0.1,0.1-0.2,0.1-0.2c0-0.1,0.1-0.2,0.1-0.2
		c0-0.1,0.1-0.2,0.1-0.4l0.3-0.9c0,0,0-0.1,0.1-0.2l0.4-1.1L62.1,62l0.2-0.5c0.1-0.3,0.2-0.6,0.4-1c0.5-1.1,1.1-2.3,1.7-3.5l0.2-0.4
		l0.3-0.5c0.1-0.1,0.1-0.2,0.2-0.3c0.1-0.2,0.2-0.4,0.4-0.6l0.5-0.8l0.5-0.7l0.7-1.1c0.1-0.1,0.1-0.2,0.1-0.2l1.6,1.1c0,0,0,0,0,0
		l-0.6,1l-0.6,0.9c-0.1,0.1-0.1,0.2-0.2,0.3l-0.4,0.7c-0.1,0.1-0.1,0.2-0.2,0.3c0,0.1-0.1,0.1-0.1,0.2l-0.2,0.3l-0.8,1.6l4.7,2.4
		l0.5-1c0.1-0.1,0.1-0.2,0.2-0.3c0-0.1,0.1-0.1,0.1-0.2l0.8-1.4l0.5-0.8c0,0,0.1-0.1,0.1-0.1l0.4-0.6c0.6-0.9,1.3-1.9,2-2.8
		c0.2-0.2,0.3-0.4,0.5-0.6c0.1-0.1,0.2-0.2,0.2-0.3l0.6-0.8c0.1-0.1,0.1-0.1,0.2-0.2c0,0,0.1-0.1,0.1-0.1l0.3-0.3l-5.4-4.8l0.2-0.2
		c0.1-0.1,0.2-0.2,0.4-0.4l0.5-0.5c0.5-0.5,1.6-1.6,2.8-2.7c1.1-1,2.2-1.9,3-2.5l0.2-0.2c0.3-0.3,0.6-0.5,0.8-0.6l0.2-0.2l1.1,1.6
		l0,0c0,0-0.1,0.1-0.2,0.1c-0.1,0.1-0.3,0.2-0.4,0.3l-0.8,0.6c-0.2,0.1-0.4,0.3-0.6,0.5l-0.3,0.2c-0.2,0.2-0.4,0.3-0.6,0.5
		c-0.1,0.1-0.2,0.2-0.3,0.2c-0.1,0.1-0.2,0.2-0.3,0.3L76,45l3.6,3.9l0.5-0.4c0.1-0.1,0.3-0.2,0.4-0.4c0.1-0.1,0.3-0.2,0.4-0.4
		c0.5-0.4,1.5-1.3,2.7-2.1c0.1-0.1,0.2-0.1,0.3-0.2c0.2-0.1,0.3-0.2,0.5-0.3l0.7-0.5l0.3-0.2c0.4-0.2,0.7-0.5,1-0.7l1.4-0.8
		c0,0,0.1,0,0.1-0.1l1-0.6l-3.5-6.4l0.2-0.1c0.1,0,0.2-0.1,0.2-0.1c0.2-0.1,0.6-0.3,0.9-0.5c1-0.5,2.3-1.1,3.6-1.6
		c1.3-0.5,2.6-1,3.7-1.3l0.4-0.1c0.1,0,0.1,0,0.2-0.1l0.9-0.3l0.5,1.9c0,0,0,0,0,0l-0.7,0.2c-0.2,0.1-0.5,0.2-0.8,0.3l-0.6,0.2
		l-1.1,0.4c-0.1,0-0.2,0.1-0.3,0.1l-2.2,0.9l2.1,4.9l0.7-0.3c0.2-0.1,0.5-0.2,0.9-0.3l0.4-0.1c0.1,0,0.2-0.1,0.3-0.1l0.8-0.3l0.1,0
		c0.5-0.2,1.1-0.4,1.6-0.5l0.4-0.1l0.7-0.2c0.2-0.1,0.4-0.1,0.6-0.2l0.8-0.2l0.9-0.2c0.1,0,0.1,0,0.2,0l0.9-0.2c0.1,0,0.1,0,0.2,0
		l0.1,0l0.3,0l0,0l0.3-0.1l0.8-0.1l-1.1-7.2l0.8-0.1l0.7-0.1c0.4-0.1,0.9-0.1,1.5-0.1l0.3,0l0.3,0c0.6,0,1.2-0.1,1.8-0.1l0.5,0
		c0.1,0,0.2,0,0.3,0l0.8,0c0.1,0,0.3,0,0.4,0l1,0c0.2,0,0.3,0,0.4,0l0.7,0c0.2,0,0.3,0,0.5,0l0.8,0.1l-0.1,1.9l-0.7,0
		c-0.2,0-0.4,0-0.6,0c-0.1,0-0.2,0-0.4,0c-0.1,0-0.1,0-0.2,0c-0.1,0-0.2,0-0.4,0l-1.1,0l-0.6,0c-0.1,0-0.2,0-0.3,0
		c-0.2,0-0.5,0-0.7,0l-1.2,0l0.3,5.3l0.8,0c0.2,0,0.6,0,0.9,0c1,0,2.2,0,3.4,0.1c0.5,0,1,0.1,1.5,0.1l0.7,0.1c0.4,0,0.8,0.1,1.2,0.1
		l0.6,0.1l0.7,0.1l1.5,0.3l1.4-7.1l0.8,0.2l1.5,0.4l0.9,0.3c0.2,0.1,0.5,0.1,0.7,0.2l0.8,0.2l0.5,0.2c0.7,0.2,1.3,0.4,1.9,0.7
		l0.9,0.4l0.8,0.3c0.1,0,0.2,0.1,0.3,0.1c0.1,0.1,0.3,0.1,0.4,0.2l0.8,0.3l-0.8,1.8l-0.7-0.3c-0.1-0.1-0.3-0.1-0.4-0.2l-0.5-0.2
		c-0.3-0.1-0.6-0.2-0.9-0.3l-0.2-0.1c-0.1,0-0.1,0-0.2-0.1c-0.1,0-0.2-0.1-0.3-0.1l-1-0.4c-0.1,0-0.2-0.1-0.3-0.1l-0.8-0.3
		c-0.1,0-0.1,0-0.2-0.1l-0.3-0.1l-1.6,5.1l0.3,0.1c0,0,0.1,0,0.2,0.1l0.6,0.2l1.3,0.4l1,0.4c0,0,0.1,0,0.1,0.1l1.3,0.6
		c1.1,0.5,2.2,1,3.1,1.5l0.3,0.2c0.1,0,0.1,0.1,0.2,0.1l0.5,0.3l1.2,0.7l0.3,0.2l3.8-6.2l1.7,1.1c0.1,0.1,0.2,0.1,0.2,0.2l0.1,0.1
		c0.1,0.1,0.2,0.1,0.3,0.2c0.2,0.1,0.3,0.2,0.5,0.4l0.8,0.6c0.2,0.1,0.4,0.3,0.6,0.4l0.3,0.2c1.3,1,2.4,2,3,2.5l0.8,0.8l0.3,0.3
		l-1.4,1.4l-0.1-0.1c0,0-0.1-0.1-0.2-0.1l-0.3-0.3l-1.2-1.1c-0.1-0.1-0.2-0.2-0.3-0.3c-0.1-0.1-0.2-0.2-0.3-0.3
		c-0.2-0.2-0.4-0.3-0.6-0.5l-0.8-0.6l-0.9-0.7l-3.2,4.2l0.5,0.4c0,0,0.1,0.1,0.1,0.1c0.1,0.1,0.2,0.1,0.3,0.2l0.5,0.4
		c0.6,0.5,1.6,1.3,2.6,2.2c1,1,1.9,1.9,2.4,2.4l0.4,0.5l0.7,0.8c0.1,0.1,0.2,0.2,0.2,0.3l0.5,0.6l5.7-4.5c0,0.1,0.1,0.1,0.2,0.2
		l0.6,0.7l0.2,0.3c0.7,1,1.5,2.1,2.2,3.2l0.3,0.5l0.8,1.3l0.5,0.8c0.1,0.2,0.2,0.4,0.3,0.5c0,0.1,0.1,0.2,0.1,0.2
		c0,0.1,0.1,0.2,0.1,0.2c0.1,0.1,0.1,0.3,0.2,0.4l0.4,0.7l-1.8,0.8l-0.3-0.7c-0.1-0.2-0.2-0.3-0.3-0.5c-0.1-0.1-0.1-0.2-0.2-0.3
		c-0.1-0.2-0.3-0.5-0.4-0.7l-0.1-0.2c0-0.1-0.1-0.1-0.1-0.2c-0.1-0.1-0.1-0.2-0.2-0.3l-0.4-0.7l-0.7-1.2L151,54l-4.4,2.9l0.2,0.3
		c0,0.1,0.1,0.1,0.2,0.3l0.3,0.5c0.1,0.1,0.2,0.3,0.3,0.5l0.4,0.6l0.4,0.7c0.1,0.2,0.2,0.3,0.3,0.5c0,0.1,0.1,0.2,0.1,0.2l0.2,0.4
		l0.2,0.4c0.5,1.1,1,2.2,1.4,3.1l0.1,0.3c0,0.1,0,0.1,0.1,0.2l0.3,0.8c0,0,0,0,0,0l0,0c0,0,0,0,0,0l0.1,0.2l0,0l0.2,0.7
		c0,0.1,0.1,0.2,0.1,0.2l0.1,0.2l6.9-2.3l0.5,1.5c0.1,0.4,0.3,0.9,0.4,1.4l0.1,0.4l0.2,0.8l0.3,1.4c0,0.1,0,0.2,0.1,0.3l0.1,0.8
		c0.1,0.3,0.1,0.5,0.1,0.8l0.2,0.9l0.2,1.2l0.1,1.2l-1.9,0.2l-0.1-0.7c0,0,0-0.1,0-0.2c0-0.1,0-0.2,0-0.3l-0.1-1.1
		c0-0.1,0-0.2-0.1-0.4l-0.1-0.4c0-0.3-0.1-0.6-0.2-0.9c0-0.1,0-0.2-0.1-0.4c0-0.2-0.1-0.4-0.1-0.6l-0.2-1.1l-5.2,1.2l0.2,1.1
		c0,0.1,0,0.2,0.1,0.4l0,0.3c0.1,0.4,0.1,0.8,0.2,1.2l0.1,0.4l0,0.2c0.1,0.5,0.1,1,0.2,1.6l0,0.4l0,0.5c0,0.1,0,0.2,0,0.3
		c0,0.2,0,0.4,0,0.6l0.1,0.8l0,0.8c0,0.3,0,0.6,0,0.9c0,0.1,0,0.2,0,0.3l0,0.4l0,1.4l7.2,0.2l0,0.3c0,0.1,0,0.2,0,0.3
		c0,0.3,0,0.6,0,1l-0.1,0.9l-0.1,1c0,0.2,0,0.5-0.1,0.7l-0.1,0.8c0,0.1,0,0.2,0,0.3l-0.3,2.2c0,0.2-0.1,0.3-0.1,0.5
		c-0.1,0.5-0.2,0.9-0.3,1.3l-0.2,0.7l-0.2,0.8l-1.9-0.5l0.2-0.7l0.2-1l0.2-1.1c0.1-0.3,0.1-0.6,0.2-0.9l0.1-0.7l0.2-1.1
		c0-0.1,0-0.1,0-0.2l0-0.3l-5.3-0.6l0,0.2c0,0,0,0.2-0.1,0.4l-0.1,0.8c0,0.1,0,0.1,0,0.2l-0.1,0.9c0,0.2-0.1,0.3-0.1,0.5
		c0,0.1,0,0.2-0.1,0.3c0,0.2-0.1,0.5-0.2,0.7l-0.1,0.6c0,0.1,0,0.2-0.1,0.3c0,0.1,0,0.1,0,0.2l-0.1,0.5L152,93l-0.2,0.8
		c0,0.2-0.1,0.3-0.2,0.5c0,0.1-0.1,0.2-0.1,0.2c0,0.1-0.1,0.2-0.1,0.2c0,0.1-0.1,0.2-0.1,0.4L151,96c0,0,0,0.1-0.1,0.2l-0.4,1.1
		l6.7,2.7l-0.2,0.5c-0.1,0.3-0.2,0.6-0.4,1c-0.5,1.1-1.1,2.3-1.7,3.5l-0.2,0.5l-0.3,0.5c-0.1,0.1-0.1,0.2-0.2,0.3
		c-0.1,0.2-0.2,0.4-0.4,0.6l-0.4,0.6l-0.6,1l-0.7,1.1c-0.1,0.1-0.1,0.2-0.1,0.2l-1.6-1.1c0,0,0,0,0,0l0.6-1l0.6-0.9
		c0.1-0.1,0.1-0.2,0.2-0.3l0.4-0.7c0.1-0.1,0.1-0.2,0.2-0.3c0-0.1,0.1-0.1,0.1-0.2l0.3-0.4l0.8-1.4l-4.7-2.4l-0.5,1
		c-0.1,0.1-0.1,0.2-0.2,0.3c0,0.1-0.1,0.1-0.1,0.2l-0.8,1.4l-0.5,0.8c0,0-0.1,0.1-0.1,0.1l-0.4,0.6c-0.6,0.9-1.3,1.9-2,2.8
		c-0.2,0.2-0.3,0.4-0.5,0.6c-0.1,0.1-0.2,0.2-0.2,0.3l-0.6,0.8c-0.1,0.1-0.1,0.1-0.2,0.2c0,0-0.1,0.1-0.1,0.1l-0.3,0.3l5.4,4.8
		l-0.2,0.2c-0.1,0.1-0.2,0.2-0.4,0.4l-0.5,0.5c-0.5,0.5-1.6,1.6-2.8,2.7c-1.1,1-2.2,1.9-3,2.5l-0.2,0.2c-0.3,0.3-0.6,0.5-0.8,0.6
		l-0.2,0.2l-1.1-1.6l0,0c0,0,0.1-0.1,0.2-0.1c0.1-0.1,0.3-0.2,0.4-0.3l0.8-0.6c0.2-0.1,0.4-0.3,0.6-0.5l0.3-0.2
		c0.2-0.2,0.4-0.3,0.6-0.5c0.1-0.1,0.2-0.2,0.3-0.2c0.1-0.1,0.2-0.2,0.3-0.3l1.3-1.1l-3.6-3.9l-0.5,0.4c-0.1,0.1-0.3,0.2-0.4,0.4
		c-0.1,0.1-0.3,0.2-0.4,0.4c-0.5,0.4-1.5,1.3-2.7,2.1c-0.1,0.1-0.2,0.1-0.3,0.2c-0.2,0.1-0.3,0.2-0.5,0.3l-0.7,0.5l-0.3,0.2
		c-0.4,0.2-0.7,0.5-1,0.7l-0.5,0.3l-0.8,0.5c0,0-0.1,0-0.1,0.1l-1,0.6l3.5,6.4l-0.2,0.1c-0.1,0-0.2,0.1-0.2,0.1
		c-0.2,0.1-0.6,0.3-0.9,0.5c-1,0.5-2.3,1.1-3.6,1.6c-1.3,0.5-2.6,1-3.7,1.3l-0.4,0.1c-0.1,0-0.1,0-0.2,0.1l-0.9,0.3l-0.5-1.9
		c0,0,0,0,0,0l0.7-0.2c0.2-0.1,0.5-0.2,0.8-0.3l0.6-0.2l1.1-0.4c0.1,0,0.2-0.1,0.3-0.1c0.1,0,0.1,0,0.2-0.1l0.3-0.1l1.7-0.7
		l-2.1-4.9l-0.8,0.3c-0.2,0.1-0.5,0.2-0.9,0.3l-0.4,0.1c-0.1,0-0.2,0.1-0.3,0.1l-0.8,0.3l-0.1,0c-0.5,0.2-1.1,0.4-1.7,0.5l-0.4,0.1
		l-0.7,0.2c-0.2,0.1-0.4,0.1-0.6,0.2l-0.8,0.2l-0.9,0.2c-0.1,0-0.1,0-0.2,0l-0.9,0.2c-0.1,0-0.1,0-0.2,0l-0.7,0.1l-0.8,0.1l1.1,7.2
		l-0.8,0.1l-0.7,0.1c-0.4,0.1-0.9,0.1-1.5,0.1l-0.6,0c-0.6,0-1.2,0.1-1.8,0.1l-0.5,0c-0.1,0-0.2,0-0.3,0l-0.8,0c-0.1,0-0.2,0-0.4,0
		l-1,0c-0.2,0-0.3,0-0.4,0l-0.7,0c-0.2,0-0.3,0-0.5,0l-0.8-0.1l0.1-1.9l0.7,0c0.2,0,0.4,0,0.6,0c0.1,0,0.2,0,0.4,0
		c0.1,0,0.1,0,0.2,0c0.1,0,0.2,0,0.4,0l1.1,0l0.6,0c0.1,0,0.2,0,0.3,0c0.2,0,0.5,0,0.7,0l1.2,0l-0.3-5.3l-0.9,0c-0.2,0-0.6,0-0.9,0
		c-1,0-2.2,0-3.4-0.1c-0.5,0-1-0.1-1.5-0.1l-0.7-0.1c-0.4,0-0.8-0.1-1.2-0.1l-0.4-0.1l-1.2-0.2l-1.3-0.3l-1.4,7.1l-1.1-0.2l-1.1-0.3
		l-1.1-0.3c-0.2-0.1-0.5-0.1-0.7-0.2l-0.8-0.2l-0.5-0.2c-0.7-0.2-1.3-0.4-1.9-0.7l-0.9-0.4l-0.8-0.3c-0.1,0-0.2-0.1-0.3-0.1
		c-0.1-0.1-0.3-0.1-0.4-0.2l-0.8-0.3l0.8-1.8l0.7,0.3c0.1,0.1,0.3,0.1,0.4,0.2l0.5,0.2c0.3,0.1,0.6,0.2,0.9,0.3l0.2,0.1
		c0.1,0,0.1,0,0.2,0.1c0.1,0,0.2,0.1,0.4,0.1l1,0.4c0.1,0,0.2,0.1,0.3,0.1L95,128c0.1,0,0.1,0,0.2,0.1l0.3,0.1l1.6-5.1l-0.3-0.1
		c0,0-0.1,0-0.2-0.1l-0.6-0.2l-1.3-0.4l-1-0.4c0,0-0.1,0-0.1-0.1l-0.5-0.2l-0.8-0.4c-1.1-0.5-2.2-1-3.1-1.5l-0.3-0.2
		c-0.1,0-0.1-0.1-0.2-0.1l-0.5-0.3l-1.2-0.7l-0.3-0.2l-3.8,6.2l-0.6-0.4l-1.1-0.7c-0.1-0.1-0.2-0.1-0.2-0.2l-0.1-0.1
		c-0.1-0.1-0.2-0.1-0.3-0.2c-0.2-0.1-0.3-0.2-0.5-0.4l-0.8-0.6c-0.2-0.1-0.4-0.3-0.6-0.4l-0.3-0.2c-1.3-1-2.4-2-3-2.5l-0.9-0.9
		l-0.2-0.2l1.4-1.4l0.1,0.1c0,0,0.1,0.1,0.2,0.1l0.6,0.6l0.9,0.8c0.1,0.1,0.2,0.2,0.3,0.3c0.1,0.1,0.2,0.2,0.3,0.3
		c0.2,0.2,0.4,0.3,0.6,0.5l0.8,0.6l0.9,0.7l3.2-4.2l-0.5-0.4c0,0-0.1-0.1-0.1-0.1c-0.1-0.1-0.2-0.1-0.3-0.2l-0.5-0.4
		c-0.6-0.5-1.6-1.3-2.6-2.2c-1-1-1.9-1.9-2.4-2.4l-0.4-0.5l-0.7-0.9l0,0c-0.1-0.1-0.1-0.2-0.2-0.3L75.2,108.2z"/>
</g>
<g>
	<path fill="#243C7C" d="M30.5,119.2c-0.5,0-28.5,0-28.5,0l17.6,23.4l-2.5,22.1h38.2L44,147.6L30.5,119.2z"/>
	<path fill="#FFFFFF" d="M12,124.2h20.6l6.5,24.7l0.2,0.8l0.5,0.7l6.2,9.4H22.7l1.9-16.6l0.2-2l-1.2-1.6L12,124.2 M2,119.2
		l17.6,23.4l-2.5,22.1h38.2L44,147.6l-7.5-28.4C36,119.2,2,119.2,2,119.2L2,119.2z"/>
	<path fill="#243C7C" d="M18.6,142.9L0,118.2h31.1l13.7,28.9l12.4,18.6H16L18.6,142.9z M43.2,148.2l-13.3-27.9H4l16.7,22.1
		l-2.4,21.4h35.3L43.2,148.2z"/>
	<path fill="#010101" d="M39.8,159c0.4-0.2,17.4,6.8,17.4,6.8l-1-7.4L40,158.5"/>
</g>
<g>
	<path fill="#243C7C" d="M187.9,119.2c0.5,0,28.5,0,28.5,0l-17.6,23.4l2.5,22.1H163l11.4-17.1L187.9,119.2z"/>
	<path fill="#FFFFFF" d="M206.3,124.2l-11.6,15.4l-1.2,1.6l0.2,2l1.9,16.6h-23.3l6.2-9.4l0.5-0.7l0.2-0.8l6.5-24.7H206.3
		 M216.4,119.2c0,0-34,0-34.5,0l-7.5,28.4L163,164.8h38.2l-2.5-22.1L216.4,119.2L216.4,119.2z"/>
	<path fill="#243C7C" d="M202.4,165.8h-41.2l12.4-18.6l13.7-28.9h31.1l-18.6,24.7L202.4,165.8z M164.9,163.8h35.3l-2.4-21.4
		l16.7-22.1h-25.9l-13.3,27.9L164.9,163.8z"/>
	<path fill="#010101" d="M178.6,159c-0.4-0.2-17.4,6.8-17.4,6.8l1-7.4l16.1,0.1"/>
</g>
<text transform="matrix(1 0 0 1 72.6162 171.5752)" fill="#010101" font-family="'FrizQua-Bold'" font-size="10.1437px" letter-spacing="1">HIGH SCHOOL</text>
<path fill="#1D489A" d="M39.1,158.5l-11.8-47.4c0-0.1,162.9,0.1,162.9,0.1l-11.9,47.2C178.4,158.5,39.5,158.9,39.1,158.5z"/>
<g>
	<path fill="#FBFEFF" d="M45.1,142.5c3.3,2.2,7.2,3.4,11.2,3.4c3.4,0,5.4-1.1,5.4-3.2c0-1.7-0.9-2.4-5.6-4.3c-5-2-5.8-2.4-7.4-3.6
		c-1.9-1.4-3-3.6-3-5.8c0-5.1,5.1-8.4,13-8.4c3.1,0,6.1,0.4,8.9,1.3v5c-2.7-1.3-5.1-1.9-7.4-1.9c-2.8,0-4.7,1.1-4.7,2.7
		c0,1.4,1,2.2,4.7,3.4c4.3,1.5,6,2.3,7.9,3.7c2.3,1.7,3.4,3.7,3.4,6.1c0,2.9-1.4,5.3-4.2,7c-2.7,1.6-5.6,2.3-10.5,2.3
		c-3.4,0-6.4-0.5-10-1.6L45.1,142.5z"/>
	<path fill="#FBFEFF" d="M71.6,145.6c1.4-0.8,1.6-1.4,1.6-4v-12.2c0-1.9-0.1-2.3-0.4-2.9c-0.3-0.5-0.6-0.8-1.2-1.1h10
		c-0.7,0.4-1,0.8-1.3,1.4c-0.2,0.5-0.3,1-0.3,2.6v12.2c0,2.6,0.2,3.1,1.6,4H71.6z"/>
	<path fill="#FBFEFF" d="M91,142.2c1,0.3,2.1,0.4,4,0.4c2.6,0,4-0.4,5.4-1.7l-1.4,4.7H82.7c1.4-0.9,1.6-1.4,1.6-4v-12.1
		c0-1.9-0.1-2.3-0.4-2.9c-0.3-0.5-0.6-0.8-1.2-1.1H96c0.6,0,0.9,0,1.3-0.2v4.5c-0.9-1-1.8-1.3-3.9-1.3H91v4.9h3.9
		c0.5,0,0.7,0,1.1-0.2v4.3c-0.6-0.9-1.2-1.1-2.8-1.1H91V142.2z"/>
	<path fill="#FBFEFF" d="M100,145.6c1.4-0.8,1.6-1.4,1.6-4v-12.2c0-1.9-0.1-2.3-0.4-2.9c-0.3-0.5-0.6-0.8-1.2-1.1h6.9
		c6.6,0,7.2,0,8.8,0.6c2.2,0.8,3.6,2.6,3.6,4.6c0,2.3-1.5,3.9-4.8,5c3.7,5.3,6.6,8.7,8.4,9.8c-2,0.2-3.5,0.3-5.1,0.3
		c-2.9,0-3.8-0.4-5.3-2.3c-1-1.2-2.3-3.3-4.4-6.9v5.1c0,2.6,0.2,3.1,1.6,4H100z M108.2,135.3c2.6-0.4,4.1-1.9,4.1-3.8
		c0-1.5-1-2.7-2.4-3c-0.5-0.1-1-0.1-1.8-0.1V135.3z"/>
	<g>
		<path fill="#FBFEFF" d="M169.4,143.9l-10-22.7h-12.1c1.5,1,2,1.6,2,2.6c0,0.6,0,0.8-1,3l-7,16.9c-1.3,3.4-1.8,4-4,6H148
			c-1.6-1.3-1.9-1.7-1.9-2.5c0-0.6,0.2-1.4,0.8-2.7l0.2-0.4l2.8-7.1h0l3.4-8.6l3.6,8.6h0l1.7,4h0.1l1.4,3.4c0.6,1.4,0.7,2,0.7,2.6
			c0,0.9-0.5,1.6-2.1,2.6h15C171.3,147.7,170.7,147,169.4,143.9z"/>
		<path fill="#FBFEFF" d="M161,135.9c-0.8,0-21.4,0-21.4,0l22.9,5.7"/>
	</g>
	<path fill="#FBFEFF" d="M131.3,141.6v-5.1c2.1,3.7,3.4,5.7,4.4,6.9c1.1,1.4,1.9,2,3.5,2.2c0.3-0.6,0.6-1.3,0.9-2.2l1.2-2.9
		c-1.1-1.4-2.3-3-3.6-4.9c3.3-1.2,4.8-2.7,4.8-5c0-1.9-1.4-3.8-3.6-4.6c-1.6-0.6-2.2-0.6-8.8-0.6h-6.9c0.6,0.4,0.9,0.6,1.2,1.1
		c0.3,0.6,0.4,1,0.4,2.9v12.2c0,2.6-0.2,3.2-1.6,4h9.8C131.5,144.7,131.3,144.1,131.3,141.6z M131.3,128.3c0.7,0,1.3,0,1.8,0.1
		c1.4,0.3,2.4,1.5,2.4,3c0,1.9-1.6,3.4-4.1,3.8V128.3z"/>
</g>
<path fill="none" d="M27.4,111.1l11.8,47.4h139.2l11.9-47.2C190.2,111.2,27.4,111,27.4,111.1z"/>
<rect x="38" y="152.6" fill="#FBFEFF" width="141.2" height="3.5"/>
<rect x="28.4" y="114" fill="#FBFEFF" width="160.5" height="3.5"/>
<path fill="#1D489A" d="M179.1,159.5H38.4l-12.3-49.2h165.4L179.1,159.5z M40,157.5h137.6l11.4-45.2H28.6L40,157.5z"/>
<g>
	<path fill="#E2BD3A" d="M140.6,113.7c-5.3-11.5-4.9-26.3-4.3-27.4l0,0c0.8-1.6,3-5.6,3.6-6.8c-1-1.9-1.7-4.5-1.7-4.6l-0.1-0.2
		l0.1-0.2c1.6-3.2,2.4-5,2.7-5.6c-3.5-5.6-4.9-8.9-6.2-12.1c-1.3-3.1-2.5-6.1-5.8-11.2c-5.3-8.4-9.7-11.6-11.2-12.5l-4.8,6.3l-1-0.3
		c-4-1.2-12.2-0.6-12.3-0.6c-8.1,0.6-16.1,8-18.9,14.6C78.5,59.4,79,72.5,79,72.7l0,0.4l-0.4,0.2c-0.8,0.4-1.3,1.6-1.2,3.1
		c0.1,1.2,0.5,1.4,0.5,1.4l0.5,0.2l-0.1,0.5c-2.1,13.9-9.8,16.3-10.1,16.4c-1,0.4-0.9,1.7-0.9,1.7l0.1,0.3c0,0-0.3,1.4,5.6,1.5
		c7.4,0.2,17.3-4.8,17.4-4.8l1-0.5l-0.1,1.2c-0.4,7.7-3.7,13.5-4.8,15.1c2.3,2.3,15.2,14,33.4,17.5l-0.2-8l0.9,0.3
		c0,0,2.1,0.6,3.5,0.6c1.3,0,2.9-0.8,3-0.8l1-0.4l-0.1,7.8C134.5,121.6,139.5,115.2,140.6,113.7z"/>
	<path fill="#A16126" d="M134.6,84.3l-0.9,2.7c0,0-0.4,18.8,3.7,26.3c-2.1,3.8-5.1,6.6-9,9.6l-0.1-38.1
		C128.3,84.8,131.2,89,134.6,84.3z"/>
	<path fill="#C3932C" d="M106.8,77.4c0,0,3.9-11.8,4.6-27.9c0,0-5.7,13.8-15,18.4l4.1,10.5L106.8,77.4z"/>
	<path fill="#C3932C" d="M102.4,83.9c0.3,0.2,3.8,2.6,6.2,3.5c0,0,0.2,17.1-3.7,30.9c0,0-5.1-2.6-7.3-4.8L102.4,83.9z"/>
	<path fill="#A16126" d="M104.9,76.1c0,0-3.4-3.3-4.2-7.2c0,0,7.7-6.4,11.1-19.7c0,0-6.5,15.9-18.8,20.5c0,0-9.5,4.8-9.5,5
		c0,0.3-1.9,19.3-1.9,19.3s8.5-4,9.6-4.7c1.1-0.8,4.6-0.4,4.6-0.4s0,13.4-3.1,20.1c0,0,5,4.2,6.8,5.4c3.2-11.4,3-11.4,3.5-19
		c0.4-7.2,0.3-8.6,0.3-8.6l-0.1-0.7c0,0,1.1,0.5,4.2,1c0,0-8.4-4.4-11.5-7.9l3.8-0.1L104.9,76.1z"/>
	<path fill="#A16126" d="M111.6,88.6c0,0,2.8,0.5,5.3-1.1l0.3,35.5c0,0-5.1-1.2-6.4-1.9L111.6,88.6z"/>
	<path fill="#C3932C" d="M119.3,40.3c-1.3,1.4-2.5,3.1-3.5,5c0.5,13.7-2.7,30.5-2.7,30.5s2.4,1.3,4.2,1.4c2.2,0.2,4.8-2.2,4.8-2.2
		c0.9,9.4-0.3,15.2-0.3,15.2l2.6,2.1C124.4,92.3,123.7,51.7,119.3,40.3z"/>
	<path fill="#A16126" d="M120.2,40.3c0,0,4,7.5,5.1,50.8v4.1l2.7-4.4c0,0,0.9-4.2,0.6-4.3c-0.3-0.1-0.8,0.2-1.2-2.8
		c-0.4-3-0.4-6-0.4-6l1.1,0.9c0,0,3.6-3,3.9-4.6C132.3,72.4,134.1,53.2,120.2,40.3z"/>
	<path fill="#C3932C" d="M79.2,72.9c0.2-0.1-0.3-1.4-0.3-1.4s0.2-9.2,1.2-13.5c1-4.3,2-9.5,8-14.1s16.4-5.4,24.6-4.1l-12.6,21.4
		L79.2,72.9z"/>
	<path fill="#A16126" d="M83.3,69.8c0,0,0.5-11.2,1.8-14.4c1.3-3.3,3.4-4.9,7.1-4.5c3.7,0.3,9.1,6.2,9.1,6.2l-1.5,3.3
		C99.8,60.3,91.4,68,83.3,69.8z"/>
	<path fill="#C3932C" d="M84.7,73.9C84.4,74,78.5,78,78.5,78s-2.4,9.9-4.4,12.1c-1.9,2.2-5.7,4.2-5.7,4.2l-1,2.6
		c0,0,0.7,1.3,3.4,1.4c2.7,0.1,9-0.8,12.9-1.9s7.8-2.7,7.8-2.7l0.8,2.4l-4.6,13.3l5.9,5.3l18.4,10.1l4.5-0.7l-16.2-8.5l-7.8-6.6
		l2.1-7.5l0.7-9.8l-0.6-3.5L83,93.4l-1.4-4.3L84.7,73.9z"/>
	<path fill="#A16126" d="M96.7,43.3c0,0,2.6-0.5,6.3-0.7l3.5,2.2v5.5L97.2,52l-4.4-2.6l0.5-4.5c0,0,1.5-1,2.3-1.3"/>
	<g>
		<path fill="#513011" d="M99.7,38.1c-8.6,0.9-17.2,7.9-19.3,14.8c-2.1,6.7-2.2,19.9-2.2,19.9c-1.1,0.6-1.6,2-1.5,3.7s0.9,2,0.9,2
			c-2,13.6-9,15.1-9,15.1c-1.6,0.6-1.9,3.1-1.9,3.1s-0.6,2.7,6.3,2.5c7.7-0.2,17.7-4.4,17.7-4.4c-0.4,8.9-4.9,14.7-4.9,14.7
			s14,14.5,34.9,18.2l-0.2-6.9c0,0,2.2,0.7,3.7,0.7c1.4,0,3.2-0.8,3.2-0.8l-0.1,7.1c8-5.6,14-14,14-14c-5.4-11.4-4.9-26.3-4.5-27.2
			c1-1.9,3.8-7.1,3.8-7.1c-1.1-1.9-1.8-4.7-1.8-4.7c2.2-4.3,2.9-6,2.9-6c-7.2-11.3-5.5-13.1-12.2-23.6c-6.7-10.5-12-13.1-12-13.1
			l-4.7,5.9C104.9,37.2,99.7,38.1,99.7,38.1z M83.4,50.8C86.5,45.7,93,40.7,100,40c7.1-0.7,11.7-0.1,11.7-0.1l-1.8,2.7
			c0,0-3.1-0.3-6.8-0.1c0,0,2.6,4.9-3.9,6.6c-6.5,1.6-5.3-4.5-2.3-5.8c0,0-7.2,1.1-11.9,10c0,0-2.9,7-2.4,17.3l-2.4,1.1
			C80.2,71.7,80.3,55.9,83.4,50.8z M98.3,60c0,0-5.5,5.2-13.6,8.4c0,0,0.1-10,2.2-12.7c2.1-2.7,5-4.1,8.3-2
			C98.4,55.9,98.3,60,98.3,60z M79.1,74c1-0.6,18.5-9.1,22.3-14.1c3.8-5,12.4-21.6,16.8-25.6c0,0,3.8,2.7,7.1,7.5c0,0-3-3.1-6.3-4.6
			c0,0-1.8,1-7.1,9.9c-5.3,8.9-6.9,13.6-12.1,17.3c-5.2,3.8-21.2,12.1-21.2,12.1S78.2,74.7,79.1,74z M79.3,78.1l2.2-1.2
			c0,0,1.9,10.8-7.3,18.4c0,0-3.3,0.6-3.7-0.6C70.5,94.7,78.3,90.7,79.3,78.1z M89,108.9c0,0,4.6-6.5,3.9-17.2c0,0-9.4,5.4-18.7,6
			c-8.6,0.6-5.1-2.6-5.1-2.6s0.6,1.3,2.2,1.4c1.6,0.1,9,0.2,23.2-7.4c0,0,1.4,10.4-2.9,20.1c0,0,7.6,8.8,23.1,14.8
			C114.6,124,98.1,119,89,108.9z M139.1,114.3c-4.9,6.7-9.9,9.3-9.9,9.3c5.7-4.8,9.5-10.2,9.5-10.2L139.1,114.3z M138.2,111.9
			c0,0-3.5,5.4-8.9,9.6l0-4.4l-0.1-32.8c0,0,1.5,1.6,2.9,0.6c1.2-0.8,4.4-5.5,4.4-5.5l-1.1-5.7c0,0-4.7,4.6-6.1,5
			c-1.1,0.3-3-1.9-3-1.9s-0.2,2.3,0.3,6.9c0.5,4.7,1,6.2,1,6.2l-2.5,4.1l-4.4-3.6c1.4-5,0.8-13.7,0.8-13.7s-1.7,1.6-4.4,1.6
			c-2.7,0-14.7-5.2-14.7-5.2s-4.9,5.6-4.7,5.8c7.3,5.6,12.5,7.9,14.4,8.3s5.8-2,5.8-2l0.5,38.3c0,0-15.4-5.3-24.9-14.9
			c0,0,2.9-6.2,2.5-20.3l1.2-0.7c0,0-2.3-1.3-4.1-0.3c-0.2,0-1.8,1.8-9.2,4.7c0,0,2.5-3.9,2.6-9.9c0.1-6.2-0.5-7.6-0.5-7.6
			s13.4-5.7,18.2-12.1s9.4-17.4,14.8-23.8c0,0,7.9,3.2,12.2,14.1c4.4,10.9,7.9,16,7.9,16s-0.7,3.1-2.3,5.5l1.6,5.1
			c0,0-3.1,5.9-3.7,7.5C135,86.9,134.4,101.5,138.2,111.9z"/>
	</g>
	<path fill="#010101" d="M99.7,38.1c-8.6,0.9-17.2,7.9-19.3,14.8c-2.1,6.7-2.2,19.9-2.2,19.9c-1.1,0.6-1.6,2-1.5,3.7s0.9,2,0.9,2
		c-2,13.6-9,15.1-9,15.1c-1.6,0.6-1.9,3.1-1.9,3.1s-0.6,2.7,6.3,2.5c7.7-0.2,17.7-4.4,17.7-4.4c-0.4,8.9-4.9,14.7-4.9,14.7
		s14,14.5,34.9,18.2l-0.2-6.9c0,0,2.2,0.7,3.7,0.7c1.4,0,3.2-0.8,3.2-0.8l-0.1,7.1c8-5.6,14-14,14-14c-5.4-11.4-4.9-26.3-4.5-27.2
		c1-1.9,3.8-7.1,3.8-7.1c-1.1-1.9-1.8-4.7-1.8-4.7c2.2-4.3,2.9-6,2.9-6c-7.2-11.3-5.5-13.1-12.2-23.6c-6.7-10.5-12-13.1-12-13.1
		l-4.7,5.9C104.9,37.2,99.7,38.1,99.7,38.1z M83.4,50.8C86.5,45.7,93,40.7,100,40c7.1-0.7,11.7-0.1,11.7-0.1l-1.8,2.7
		c0,0-3.1-0.3-6.8-0.1c0,0,2.6,4.9-3.9,6.6c-6.5,1.6-5.3-4.5-2.3-5.8c0,0-7.2,1.1-11.9,10c0,0-2.9,7-2.4,17.3l-2.4,1.1
		C80.2,71.7,80.3,55.9,83.4,50.8z M98.3,60c0,0-5.5,5.2-13.6,8.4c0,0,0.1-10,2.2-12.7c2.1-2.7,5-4.1,8.3-2
		C98.4,55.9,98.3,60,98.3,60z M79.1,74c1-0.6,18.5-9.1,22.3-14.1c3.8-5,12.4-21.6,16.8-25.6c0,0,3.8,2.7,7.1,7.5c0,0-3-3.1-6.3-4.6
		c0,0-1.8,1-7.1,9.9c-5.3,8.9-6.9,13.6-12.1,17.3c-5.2,3.8-21.2,12.1-21.2,12.1S78.2,74.7,79.1,74z M79.3,78.1l2.2-1.2
		c0,0,1.9,10.8-7.3,18.4c0,0-3.3,0.6-3.7-0.6C70.5,94.7,78.3,90.7,79.3,78.1z M89,108.9c0,0,4.6-6.5,3.9-17.2c0,0-9.4,5.4-18.7,6
		c-8.6,0.6-5.1-2.6-5.1-2.6s0.6,1.3,2.2,1.4c1.6,0.1,9,0.2,23.2-7.4c0,0,1.4,10.4-2.9,20.1c0,0,7.6,8.8,23.1,14.8
		C114.6,124,98.1,119,89,108.9z M139.1,114.3c-4.9,6.7-9.9,9.3-9.9,9.3c5.7-4.8,9.5-10.2,9.5-10.2L139.1,114.3z M138.2,111.9
		c0,0-3.5,5.4-8.9,9.6l0-4.4l-0.1-32.8c0,0,1.5,1.6,2.9,0.6c1.2-0.8,4.4-5.5,4.4-5.5l-1.1-5.7c0,0-4.7,4.6-6.1,5
		c-1.1,0.3-3-1.9-3-1.9s-0.2,2.3,0.3,6.9c0.5,4.7,1,6.2,1,6.2l-2.5,4.1l-4.4-3.6c1.4-5,0.8-13.7,0.8-13.7s-1.7,1.6-4.4,1.6
		c-2.7,0-14.7-5.2-14.7-5.2s-4.9,5.6-4.7,5.8c7.3,5.6,12.5,7.9,14.4,8.3s5.8-2,5.8-2l0.5,38.3c0,0-15.4-5.3-24.9-14.9
		c0,0,2.9-6.2,2.5-20.3l1.2-0.7c0,0-2.3-1.3-4.1-0.3c-0.2,0-1.8,1.8-9.2,4.7c0,0,2.5-3.9,2.6-9.9c0.1-6.2-0.5-7.6-0.5-7.6
		s13.4-5.7,18.2-12.1s9.4-17.4,14.8-23.8c0,0,7.9,3.2,12.2,14.1c4.4,10.9,7.9,16,7.9,16s-0.7,3.1-2.3,5.5l1.6,5.1
		c0,0-3.1,5.9-3.7,7.5C135,86.9,134.4,101.5,138.2,111.9z"/>
</g>
<path id="SVGID_x5F_1_x5F_" fill="none" d="M171.8,81.2c0,34.3-27.8,62.1-62.1,62.1s-62.1-27.8-62.1-62.1s27.8-62.1,62.1-62.1
	S171.8,47,171.8,81.2z"/>
<text><textPath  xlink:href="#SVGID_x5F_1_x5F_" startOffset="167.2527%">
<tspan  fill="#FBFEFF" font-family="'FrizQua-Bold'" font-size="10.8229px" letter-spacing="135">RESPECTFUL • RESPONSIBLE • READY</tspan></textPath>
</text>
</svg>
